PathFileType	4	(X/Y/Z)	SUBJ62_1_walk_RCNL2025.trc
DataRate	CameraRate	NumFrames	NumMarkers	Units	OrigDataRate	OrigDataStartFrame	OrigNumFrames
100	100	8	25	mm	100	158	315
Frame#	Time	R_Shoulder			L_Shoulder			C7			J_Notch			R_Elbow			L_Elbow			R_Wrist			L_Wrist			R_Asis			L_Asis			Sacral			Thoracic			Sternum			R_Thigh_Lateral			R_Knee_Lateral			R_Shank_Lateral			R_Ankle_Lateral			R_Heel			R_Toe			L_Thigh_Lateral			L_Knee_Lateral			L_Shank_Lateral			L_Ankle_Lateral			L_Heel			L_Toe		
		X1	Y1	Z1	X2	Y2	Z2	X3	Y3	Z3	X4	Y4	Z4	X5	Y5	Z5	X6	Y6	Z6	X7	Y7	Z7	X8	Y8	Z8	X9	Y9	Z9	X10	Y10	Z10	X11	Y11	Z11	X12	Y12	Z12	X13	Y13	Z13	X14	Y14	Z14	X15	Y15	Z15	X16	Y16	Z16	X17	Y17	Z17	X18	Y18	Z18	X19	Y19	Z19	X20	Y20	Z20	X21	Y21	Z21	X22	Y22	Z22	X23	Y23	Z23	X24	Y24	Z24	X25	Y25	Z25
158	1.57000000	542.865173	1274.830811	7.852161	513.410400	1286.297363	-330.946503	457.233490	1347.285034	-156.869049	587.412415	1260.218872	-165.642746	596.212036	988.347900	86.080276	416.696442	993.296570	-376.571289	774.565643	860.149872	49.522296	428.792419	773.807007	-369.694305	568.719421	861.653503	-17.597446	591.237366	870.133606	-277.203888	408.099243	866.804932	-165.108093	394.720123	1151.660278	-158.252136	606.054932	1060.115601	-161.955994	443.183990	481.137604	24.566095	442.227142	423.452759	-52.696461	403.835266	248.218750	-23.444830	356.693939	65.494942	-104.705124	308.244598	54.926521	-150.382446	458.232788	44.486423	-107.281525	661.486511	490.921234	-336.336823	668.390198	425.595184	-289.095337	699.951294	237.208801	-324.212616	704.334961	66.271370	-262.951202	644.455566	55.592949	-221.000961	811.348206	66.918251	-248.559998
159	1.58000000	553.083862	1273.123047	7.447309	524.166992	1284.222534	-331.490051	467.770935	1345.501343	-157.480835	597.984619	1258.431030	-165.925964	609.119507	987.418091	85.851250	424.261841	992.071533	-375.643127	789.639374	862.582214	47.943724	433.317535	772.461426	-368.555481	579.073425	859.969116	-17.641258	603.013611	868.106628	-277.263733	419.251801	865.051575	-166.040329	405.316681	1149.795532	-158.940094	616.843811	1058.365601	-162.041672	449.565796	480.709747	24.301926	447.845551	423.022034	-53.052830	407.159729	248.372742	-23.907701	357.296173	66.364769	-105.054581	308.740326	56.341118	-150.771912	458.441895	44.509705	-107.362991	670.445862	488.133698	-336.309204	678.404236	423.338593	-288.934662	720.021484	237.221100	-324.794800	735.798218	66.140640	-263.404633	676.322510	52.140934	-221.580978	842.942017	72.222511	-248.929260
160	1.59000000	563.330017	1271.403076	6.953706	535.003540	1282.136963	-332.137909	478.364471	1343.717407	-158.209915	608.614319	1256.650513	-166.304489	621.779785	986.403137	85.499527	432.269714	990.758240	-374.821686	804.224731	864.681091	46.393424	438.433914	771.091492	-367.558578	589.497070	858.318542	-17.719410	614.937988	866.015503	-277.367096	430.527771	863.282898	-167.080795	415.975983	1147.933350	-159.737625	627.704834	1056.622925	-162.211929	456.277344	480.268311	24.024710	453.844360	422.594452	-53.418652	410.767517	248.604187	-24.352066	357.959473	67.417572	-105.335014	309.276276	58.002373	-151.072876	458.677094	44.545712	-107.434891	678.696594	485.024750	-336.401794	688.156799	421.094757	-288.875061	739.306396	237.573746	-325.356232	765.328064	66.847282	-263.884949	706.384583	49.826920	-222.124359	872.443115	77.684891	-249.473282
161	1.60000000	573.629333	1269.709106	6.369416	545.914673	1280.082886	-332.890991	489.025330	1341.971680	-159.051239	619.312439	1254.916260	-166.787079	634.176086	985.322937	85.024597	440.726898	989.385010	-374.126740	818.308563	866.431183	44.879231	444.189423	769.718109	-366.730072	599.984070	856.733215	-17.826401	626.985840	863.915710	-277.514404	441.923157	861.538940	-168.216522	426.712006	1146.107666	-160.634583	638.645935	1054.925903	-162.474167	463.380493	479.819153	23.745949	460.259583	422.180756	-53.772507	414.657166	248.920074	-24.724134	358.698151	68.680199	-105.501167	309.852509	59.948318	-151.224152	458.950165	44.609829	-107.483452	686.448364	481.744507	-336.603912	697.847412	418.954010	-288.923584	757.760620	238.110794	-325.845764	792.586670	68.081215	-264.306732	734.267395	48.436443	-222.518433	899.575317	82.907104	-250.143997
162	1.61000000	584.006592	1268.081543	5.691877	556.893921	1278.102905	-333.747772	499.761993	1340.298828	-159.999664	630.088135	1253.266968	-167.380829	646.289001	984.199707	84.428024	449.635895	987.983643	-373.580841	831.872345	867.816559	43.408244	450.628128	768.362610	-366.094559	610.547668	855.240112	-17.968134	639.130676	861.867004	-277.710938	453.437073	859.861755	-169.429810	437.540131	1144.348267	-161.619553	649.677979	1053.312866	-162.836609	470.916656	479.383972	23.484587	467.120514	421.792603	-54.085987	418.816528	249.317886	-24.968630	359.529633	70.175529	-105.508530	310.473602	62.216808	-151.165466	459.275482	44.718376	-107.495148	693.979858	478.474945	-336.880981	707.669983	416.988007	-289.067200	775.280884	238.649460	-326.226593	817.277039	69.495239	-264.601379	759.645142	47.715412	-222.682785	924.100525	87.500832	-250.878586
163	1.62000000	594.481384	1266.558960	4.917362	567.936584	1276.237061	-334.705566	510.579834	1338.726685	-161.051010	640.949036	1251.737793	-168.090851	658.099609	983.055908	83.712120	458.996185	986.586304	-373.206726	844.895691	868.822296	41.986785	457.787827	767.043915	-365.667694	621.223083	853.861389	-18.162264	651.350159	859.929016	-277.965820	465.073669	858.291748	-170.700241	448.476624	1142.679688	-162.682266	660.815247	1051.819824	-163.308228	478.902985	479.000061	23.262842	474.451630	421.440674	-54.327099	423.244293	249.796906	-25.046392	360.475281	71.923149	-105.321449	311.152863	64.844231	-150.849869	459.669525	44.882919	-107.457199	701.611572	475.413544	-337.183777	717.779175	415.242889	-289.274475	791.717529	239.004807	-326.480042	839.164673	70.746025	-264.734161	782.246765	47.389812	-222.592972	945.840637	91.122688	-251.602188
164	1.63000000	605.067261	1265.175171	4.041121	579.041260	1274.520264	-335.763153	521.480957	1337.275879	-162.201508	651.902832	1250.356201	-168.921555	669.590393	981.911621	82.879395	468.804718	985.222900	-373.025330	857.359741	869.434875	40.620679	465.699020	765.776001	-365.454498	632.066223	852.611816	-18.433294	663.631836	858.157349	-278.291687	476.841980	856.863831	-172.005432	459.537933	1141.119873	-163.814560	672.075928	1050.476807	-163.897675	487.338257	478.709381	23.098900	482.271027	421.133820	-54.467548	427.979126	250.372604	-24.940092	361.560547	73.942268	-104.917557	311.916138	67.864067	-150.252930	460.150116	45.108131	-107.358780	709.657288	472.743408	-337.466034	728.263855	413.733734	-289.505280	806.897705	239.014633	-326.605347	858.100586	71.538513	-264.700226	801.860962	47.191803	-222.270508	964.696838	93.497810	-252.237411
165	1.64000000	615.774292	1263.957275	3.058038	590.210876	1272.980469	-336.921997	532.465210	1335.959839	-163.448166	662.956665	1249.140625	-169.877563	680.744873	980.783020	81.932487	479.055878	983.918579	-373.055328	869.248779	869.641327	39.315709	474.384720	764.567291	-365.452835	643.145569	851.496094	-18.806217	675.975464	856.599243	-278.704010	488.756104	855.604187	-173.322037	470.738892	1139.679932	-165.011642	683.479736	1049.307251	-164.612259	496.212189	478.543365	22.999327	490.589935	420.878510	-54.491161	433.095215	251.070480	-24.649643	362.815765	76.253090	-104.290298	312.805267	71.306274	-149.377914	460.735352	45.392597	-107.194023	718.369324	470.592163	-337.701050	739.139587	412.444122	-289.724579	820.667053	238.559555	-326.615143	874.043640	71.664391	-264.510406	818.367371	46.905594	-221.762451	980.662231	94.437218	-252.717346
